<mxfile host="app.diagrams.net" modified="2022-11-03T09:04:22.755Z" agent="5.0 (Windows NT 10.0; Win64; x64) AppleWebKit/537.36 (KHTML, like Gecko) Chrome/106.0.0.0 Safari/537.36" etag="cS-bcX-dEqqoL_mZXj6t" version="16.2.6" type="github">
  <diagram id="2j9tihJcWGmogORtZLfm" name="Page-1">
    <mxGraphModel dx="1278" dy="571" grid="1" gridSize="10" guides="1" tooltips="1" connect="1" arrows="1" fold="1" page="1" pageScale="1" pageWidth="850" pageHeight="1100" math="0" shadow="0">
      <root>
        <mxCell id="0" />
        <mxCell id="1" parent="0" />
        <mxCell id="FCE10W5ZX_m4McsUhyiG-1" value="ESP8266&lt;br&gt;NodeMCU&lt;br&gt;Client Node" style="ellipse;whiteSpace=wrap;html=1;aspect=fixed;" vertex="1" parent="1">
          <mxGeometry x="33.730000000000004" y="638" width="80" height="80" as="geometry" />
        </mxCell>
        <mxCell id="FCE10W5ZX_m4McsUhyiG-2" value="ESP8266&lt;br&gt;NodeMCU&lt;br&gt;Client Node" style="ellipse;whiteSpace=wrap;html=1;aspect=fixed;" vertex="1" parent="1">
          <mxGeometry x="33.730000000000004" y="508" width="80" height="80" as="geometry" />
        </mxCell>
        <mxCell id="FCE10W5ZX_m4McsUhyiG-3" value="ESP8266&lt;br&gt;NodeMCU&lt;br&gt;Server Node" style="ellipse;whiteSpace=wrap;html=1;aspect=fixed;fillColor=none;" vertex="1" parent="1">
          <mxGeometry x="213.73" y="578" width="80" height="80" as="geometry" />
        </mxCell>
        <mxCell id="FCE10W5ZX_m4McsUhyiG-4" value="" style="shape=curlyBracket;whiteSpace=wrap;html=1;rounded=1;flipH=1;fillColor=none;rotation=90;" vertex="1" parent="1">
          <mxGeometry x="153.73" y="628" width="20" height="260" as="geometry" />
        </mxCell>
        <mxCell id="FCE10W5ZX_m4McsUhyiG-5" value="Mesh 1 (AlphaMesh)" style="text;html=1;strokeColor=none;fillColor=none;align=center;verticalAlign=middle;whiteSpace=wrap;rounded=0;" vertex="1" parent="1">
          <mxGeometry x="133.73" y="788" width="60" height="30" as="geometry" />
        </mxCell>
        <mxCell id="FCE10W5ZX_m4McsUhyiG-11" value="ESP8266&lt;br&gt;NodeMCU&lt;br&gt;Client Node" style="ellipse;whiteSpace=wrap;html=1;aspect=fixed;" vertex="1" parent="1">
          <mxGeometry x="716.26" y="638" width="80" height="80" as="geometry" />
        </mxCell>
        <mxCell id="FCE10W5ZX_m4McsUhyiG-12" value="ESP8266&lt;br&gt;NodeMCU&lt;br&gt;Client Node" style="ellipse;whiteSpace=wrap;html=1;aspect=fixed;" vertex="1" parent="1">
          <mxGeometry x="716.26" y="508" width="80" height="80" as="geometry" />
        </mxCell>
        <mxCell id="FCE10W5ZX_m4McsUhyiG-13" value="ESP8266&lt;br&gt;NodeMCU&lt;br&gt;Server Node" style="ellipse;whiteSpace=wrap;html=1;aspect=fixed;fillColor=none;" vertex="1" parent="1">
          <mxGeometry x="536.26" y="578" width="80" height="80" as="geometry" />
        </mxCell>
        <mxCell id="FCE10W5ZX_m4McsUhyiG-14" value="" style="shape=curlyBracket;whiteSpace=wrap;html=1;rounded=1;flipH=1;fillColor=none;rotation=90;" vertex="1" parent="1">
          <mxGeometry x="656.26" y="628" width="20" height="260" as="geometry" />
        </mxCell>
        <mxCell id="FCE10W5ZX_m4McsUhyiG-15" value="Mesh 2 (BetaMesh)" style="text;html=1;strokeColor=none;fillColor=none;align=center;verticalAlign=middle;whiteSpace=wrap;rounded=0;" vertex="1" parent="1">
          <mxGeometry x="636.26" y="788" width="60" height="30" as="geometry" />
        </mxCell>
        <mxCell id="FCE10W5ZX_m4McsUhyiG-16" value="" style="shape=image;html=1;verticalAlign=top;verticalLabelPosition=bottom;labelBackgroundColor=#ffffff;imageAspect=0;aspect=fixed;image=https://cdn1.iconfinder.com/data/icons/computer-hardware-glyphs-vol-2/52/signal__device__technology__radar__satellite__antenna__tower-128.png;fillColor=none;rotation=-30;" vertex="1" parent="1">
          <mxGeometry x="496.26" y="510" width="78" height="78" as="geometry" />
        </mxCell>
        <mxCell id="FCE10W5ZX_m4McsUhyiG-17" value="" style="shape=image;html=1;verticalAlign=top;verticalLabelPosition=bottom;labelBackgroundColor=#ffffff;imageAspect=0;aspect=fixed;image=https://cdn1.iconfinder.com/data/icons/computer-hardware-glyphs-vol-2/52/signal__device__technology__radar__satellite__antenna__tower-128.png;fillColor=none;rotation=30;" vertex="1" parent="1">
          <mxGeometry x="243.73" y="500" width="78" height="78" as="geometry" />
        </mxCell>
        <mxCell id="FCE10W5ZX_m4McsUhyiG-18" value="RFM95W&lt;br&gt;LoRa" style="text;html=1;strokeColor=none;fillColor=none;align=center;verticalAlign=middle;whiteSpace=wrap;rounded=0;" vertex="1" parent="1">
          <mxGeometry x="446.26" y="548" width="60" height="30" as="geometry" />
        </mxCell>
        <mxCell id="FCE10W5ZX_m4McsUhyiG-20" value="RFM95W&lt;br&gt;LoRa" style="text;html=1;strokeColor=none;fillColor=none;align=center;verticalAlign=middle;whiteSpace=wrap;rounded=0;" vertex="1" parent="1">
          <mxGeometry x="293.73" y="548" width="60" height="30" as="geometry" />
        </mxCell>
        <mxCell id="3kGpmjO33P2lQRk3DPsD-5" value="Raspberry Pi" style="rounded=0;whiteSpace=wrap;html=1;rotation=-90;" vertex="1" parent="1">
          <mxGeometry x="310" y="126" width="230" height="140" as="geometry" />
        </mxCell>
        <mxCell id="3kGpmjO33P2lQRk3DPsD-6" value="RFM95W&lt;br&gt;" style="text;html=1;strokeColor=none;fillColor=none;align=center;verticalAlign=middle;whiteSpace=wrap;rounded=0;" vertex="1" parent="1">
          <mxGeometry x="425" y="314" width="60" height="30" as="geometry" />
        </mxCell>
        <mxCell id="3kGpmjO33P2lQRk3DPsD-7" value="" style="shape=image;html=1;verticalAlign=top;verticalLabelPosition=bottom;labelBackgroundColor=#ffffff;imageAspect=0;aspect=fixed;image=https://cdn1.iconfinder.com/data/icons/computer-hardware-glyphs-vol-2/52/signal__device__technology__radar__satellite__antenna__tower-128.png;fillColor=none;rotation=-180;" vertex="1" parent="1">
          <mxGeometry x="377.46" y="314" width="75.07" height="75.07" as="geometry" />
        </mxCell>
      </root>
    </mxGraphModel>
  </diagram>
</mxfile>
